<svg xmlns="http://www.w3.org/2000/svg" xmlns:xlink="http://www.w3.org/1999/xlink" width="72" zoomAndPan="magnify" viewBox="0 0 54 54" height="72" preserveAspectRatio="xMidYMid meet" version="1.0"><defs><filter x="0%" y="0%" width="100%" height="100%" id="254435264e"><feColorMatrix values="0 0 0 0 1 0 0 0 0 1 0 0 0 0 1 0 0 0 1 0" color-interpolation-filters="sRGB"/></filter><clipPath id="99dbf33f5e"><path d="M 0.492188 0 L 53.507812 0 L 53.507812 53.019531 L 0.492188 53.019531 Z M 0.492188 0 " clip-rule="nonzero"/></clipPath><mask id="1a0ea7f2a6"><g filter="url(#254435264e)"><rect x="-5.4" width="64.8" fill="#000000" y="-5.4" height="64.8" fill-opacity="0.26"/></g></mask><clipPath id="e97e39fd1a"><path d="M 0.492188 0 L 53.507812 0 L 53.507812 53.019531 L 0.492188 53.019531 Z M 0.492188 0 " clip-rule="nonzero"/></clipPath><clipPath id="111949e71f"><path d="M 27 0 C 12.359375 0 0.492188 11.867188 0.492188 26.507812 C 0.492188 41.148438 12.359375 53.019531 27 53.019531 C 41.640625 53.019531 53.507812 41.148438 53.507812 26.507812 C 53.507812 11.867188 41.640625 0 27 0 Z M 27 0 " clip-rule="nonzero"/></clipPath><clipPath id="fbf49c1f7f"><path d="M 0.492188 0 L 53.507812 0 L 53.507812 53.019531 L 0.492188 53.019531 Z M 0.492188 0 " clip-rule="nonzero"/></clipPath><clipPath id="e508417032"><path d="M 27 0 C 12.359375 0 0.492188 11.867188 0.492188 26.507812 C 0.492188 41.148438 12.359375 53.019531 27 53.019531 C 41.640625 53.019531 53.507812 41.148438 53.507812 26.507812 C 53.507812 11.867188 41.640625 0 27 0 Z M 27 0 " clip-rule="nonzero"/></clipPath><clipPath id="0bb6d45fae"><rect x="0" width="54" y="0" height="54"/></clipPath><clipPath id="9ada42a1f0"><rect x="0" width="54" y="0" height="54"/></clipPath><clipPath id="765a85ee92"><path d="M 5.460938 5 L 48.90625 5 L 48.90625 48 L 5.460938 48 Z M 5.460938 5 " clip-rule="nonzero"/></clipPath></defs><g clip-path="url(#99dbf33f5e)"><g mask="url(#1a0ea7f2a6)"><g transform="matrix(1, 0, 0, 1, 0.000000000000000056, -0.000000000000014165)"><g clip-path="url(#9ada42a1f0)"><g clip-path="url(#e97e39fd1a)"><g clip-path="url(#111949e71f)"><g transform="matrix(1, 0, 0, 1, 0.000000000000000056, -0.000000000000014165)"><g clip-path="url(#0bb6d45fae)"><g clip-path="url(#fbf49c1f7f)"><g clip-path="url(#e508417032)"><path fill="#00bc95" d="M 0.492188 0 L 53.507812 0 L 53.507812 53.019531 L 0.492188 53.019531 Z M 0.492188 0 " fill-opacity="1" fill-rule="nonzero"/></g></g></g></g></g></g></g></g></g></g><g clip-path="url(#765a85ee92)"><path fill="#00bc95" d="M 27.050781 5 C 15.179688 4.960938 5.527344 14.554688 5.492188 26.425781 C 5.453125 38.296875 15.046875 47.949219 26.917969 47.988281 C 38.789062 48.023438 48.441406 38.429688 48.476562 26.558594 C 48.515625 14.691406 38.925781 5.039062 27.050781 5 Z M 17.054688 20.710938 C 17.316406 15.632812 21.496094 11.492188 26.570312 11.277344 C 26.726562 11.273438 26.878906 11.269531 27.03125 11.269531 C 32.523438 11.289062 36.976562 15.765625 36.957031 21.257812 C 36.953125 23.199219 36.382812 25.078125 35.320312 26.695312 C 35.308594 26.714844 35.296875 26.734375 35.285156 26.757812 C 34.929688 27.292969 31.808594 31.921875 27.539062 35.390625 C 27.375 35.523438 27.167969 35.597656 26.957031 35.597656 C 26.742188 35.597656 26.535156 35.519531 26.375 35.386719 C 22.125 31.890625 19.027344 27.230469 18.683594 26.703125 C 18.671875 26.683594 18.660156 26.664062 18.648438 26.644531 C 17.503906 24.878906 16.953125 22.824219 17.058594 20.707031 Z M 26.941406 40.121094 C 19.515625 40.097656 14.617188 38.007812 14.625 36.144531 C 14.628906 34.738281 17.292969 33.296875 21.488281 32.644531 C 21.597656 32.625 21.691406 32.574219 21.773438 32.507812 C 22.894531 33.753906 24.210938 35.070312 25.65625 36.261719 C 26.03125 36.570312 26.492188 36.722656 26.949219 36.726562 C 27.410156 36.726562 27.871094 36.574219 28.246094 36.269531 C 29.703125 35.085938 31.023438 33.777344 32.15625 32.539062 C 32.234375 32.609375 32.328125 32.65625 32.445312 32.675781 C 36.632812 33.355469 39.96875 34.792969 39.964844 36.195312 C 39.957031 38.058594 34.363281 40.144531 26.941406 40.121094 Z M 26.941406 40.121094 " fill-opacity="1" fill-rule="nonzero"/></g><path fill="#00bc95" d="M 26.992188 24.859375 C 28.996094 24.867188 30.628906 23.246094 30.636719 21.238281 C 30.640625 19.238281 29.019531 17.605469 27.015625 17.597656 C 25.007812 17.59375 23.375 19.214844 23.371094 21.21875 C 23.363281 23.222656 24.984375 24.855469 26.992188 24.859375 Z M 26.992188 24.859375 " fill-opacity="1" fill-rule="nonzero"/></svg>