<svg xmlns="http://www.w3.org/2000/svg" xmlns:xlink="http://www.w3.org/1999/xlink" width="72" zoomAndPan="magnify" viewBox="0 0 54 54" height="72" preserveAspectRatio="xMidYMid meet" version="1.0"><defs><filter x="0%" y="0%" width="100%" height="100%" id="52786194a9"><feColorMatrix values="0 0 0 0 1 0 0 0 0 1 0 0 0 0 1 0 0 0 1 0" color-interpolation-filters="sRGB"/></filter><clipPath id="a5570ba3c4"><path d="M 0.492188 0 L 53.507812 0 L 53.507812 53.019531 L 0.492188 53.019531 Z M 0.492188 0 " clip-rule="nonzero"/></clipPath><mask id="0c083e8339"><g filter="url(#52786194a9)"><rect x="-5.4" width="64.8" fill="#000000" y="-5.4" height="64.8" fill-opacity="0.26"/></g></mask><clipPath id="758f5c596a"><path d="M 0.492188 0 L 53.507812 0 L 53.507812 53.019531 L 0.492188 53.019531 Z M 0.492188 0 " clip-rule="nonzero"/></clipPath><clipPath id="51aece46e7"><path d="M 27 0 C 12.359375 0 0.492188 11.867188 0.492188 26.507812 C 0.492188 41.148438 12.359375 53.019531 27 53.019531 C 41.640625 53.019531 53.507812 41.148438 53.507812 26.507812 C 53.507812 11.867188 41.640625 0 27 0 Z M 27 0 " clip-rule="nonzero"/></clipPath><clipPath id="db0e5c4587"><path d="M 0.492188 0 L 53.507812 0 L 53.507812 53.019531 L 0.492188 53.019531 Z M 0.492188 0 " clip-rule="nonzero"/></clipPath><clipPath id="f73d9d7d94"><path d="M 27 0 C 12.359375 0 0.492188 11.867188 0.492188 26.507812 C 0.492188 41.148438 12.359375 53.019531 27 53.019531 C 41.640625 53.019531 53.507812 41.148438 53.507812 26.507812 C 53.507812 11.867188 41.640625 0 27 0 Z M 27 0 " clip-rule="nonzero"/></clipPath><clipPath id="8171cfe8bd"><rect x="0" width="54" y="0" height="54"/></clipPath><clipPath id="52075a8e94"><rect x="0" width="54" y="0" height="54"/></clipPath><clipPath id="8f3198d22f"><path d="M 5.460938 4.96875 L 48.90625 4.96875 L 48.90625 48.414062 L 5.460938 48.414062 Z M 5.460938 4.96875 " clip-rule="nonzero"/></clipPath></defs><g clip-path="url(#a5570ba3c4)"><g mask="url(#0c083e8339)"><g transform="matrix(1, 0, 0, 1, 0.000000000000000056, -0.000000000000014165)"><g clip-path="url(#52075a8e94)"><g clip-path="url(#758f5c596a)"><g clip-path="url(#51aece46e7)"><g transform="matrix(1, 0, 0, 1, 0.000000000000000056, -0.000000000000014165)"><g clip-path="url(#8171cfe8bd)"><g clip-path="url(#db0e5c4587)"><g clip-path="url(#f73d9d7d94)"><path fill="#ff9900" d="M 0.492188 0 L 53.507812 0 L 53.507812 53.019531 L 0.492188 53.019531 Z M 0.492188 0 " fill-opacity="1" fill-rule="nonzero"/></g></g></g></g></g></g></g></g></g></g><g clip-path="url(#8f3198d22f)"><path fill="#ff9900" d="M 27 4.96875 C 26.292969 4.96875 25.589844 5.003906 24.890625 5.074219 C 24.1875 5.144531 23.488281 5.246094 22.796875 5.382812 C 22.105469 5.523438 21.421875 5.691406 20.746094 5.898438 C 20.074219 6.101562 19.410156 6.339844 18.757812 6.609375 C 18.105469 6.878906 17.46875 7.179688 16.847656 7.515625 C 16.226562 7.847656 15.621094 8.207031 15.035156 8.601562 C 14.445312 8.992188 13.882812 9.410156 13.335938 9.859375 C 12.789062 10.308594 12.269531 10.78125 11.769531 11.277344 C 11.269531 11.777344 10.796875 12.300781 10.351562 12.84375 C 9.902344 13.390625 9.484375 13.957031 9.089844 14.542969 C 8.699219 15.128906 8.335938 15.734375 8.003906 16.355469 C 7.671875 16.976562 7.371094 17.613281 7.101562 18.265625 C 6.832031 18.917969 6.59375 19.582031 6.390625 20.257812 C 6.183594 20.933594 6.011719 21.617188 5.875 22.308594 C 5.738281 23 5.632812 23.695312 5.566406 24.398438 C 5.496094 25.101562 5.460938 25.804688 5.460938 26.507812 C 5.460938 27.214844 5.496094 27.917969 5.566406 28.621094 C 5.632812 29.324219 5.738281 30.019531 5.875 30.710938 C 6.011719 31.402344 6.183594 32.085938 6.390625 32.761719 C 6.59375 33.4375 6.832031 34.101562 7.101562 34.75 C 7.371094 35.402344 7.671875 36.039062 8.003906 36.664062 C 8.335938 37.285156 8.699219 37.890625 9.089844 38.476562 C 9.484375 39.0625 9.902344 39.628906 10.351562 40.171875 C 10.796875 40.71875 11.269531 41.242188 11.769531 41.738281 C 12.269531 42.238281 12.789062 42.710938 13.335938 43.160156 C 13.882812 43.605469 14.445312 44.027344 15.035156 44.417969 C 15.621094 44.808594 16.226562 45.171875 16.847656 45.503906 C 17.46875 45.835938 18.105469 46.136719 18.757812 46.40625 C 19.410156 46.679688 20.074219 46.914062 20.746094 47.121094 C 21.421875 47.324219 22.105469 47.496094 22.796875 47.632812 C 23.488281 47.773438 24.1875 47.875 24.890625 47.945312 C 25.589844 48.011719 26.292969 48.046875 27 48.046875 C 27.707031 48.046875 28.410156 48.011719 29.109375 47.945312 C 29.8125 47.875 30.511719 47.773438 31.203125 47.632812 C 31.894531 47.496094 32.578125 47.324219 33.253906 47.121094 C 33.925781 46.914062 34.589844 46.679688 35.242188 46.40625 C 35.894531 46.136719 36.53125 45.835938 37.152344 45.503906 C 37.773438 45.171875 38.378906 44.808594 38.964844 44.417969 C 39.554688 44.027344 40.117188 43.605469 40.664062 43.160156 C 41.210938 42.710938 41.730469 42.238281 42.230469 41.738281 C 42.730469 41.242188 43.203125 40.71875 43.648438 40.171875 C 44.097656 39.628906 44.515625 39.0625 44.910156 38.476562 C 45.300781 37.890625 45.664062 37.285156 45.996094 36.664062 C 46.328125 36.039062 46.628906 35.402344 46.898438 34.75 C 47.167969 34.101562 47.40625 33.4375 47.609375 32.761719 C 47.816406 32.085938 47.988281 31.402344 48.125 30.710938 C 48.261719 30.019531 48.367188 29.324219 48.433594 28.621094 C 48.503906 27.917969 48.539062 27.214844 48.539062 26.507812 C 48.539062 25.804688 48.503906 25.101562 48.433594 24.398438 C 48.367188 23.695312 48.261719 23 48.125 22.308594 C 47.988281 21.617188 47.816406 20.933594 47.609375 20.257812 C 47.40625 19.582031 47.167969 18.917969 46.898438 18.265625 C 46.628906 17.613281 46.328125 16.976562 45.996094 16.355469 C 45.664062 15.734375 45.300781 15.128906 44.910156 14.542969 C 44.515625 13.957031 44.097656 13.390625 43.648438 12.84375 C 43.203125 12.300781 42.730469 11.777344 42.230469 11.277344 C 41.730469 10.78125 41.210938 10.308594 40.664062 9.859375 C 40.117188 9.410156 39.554688 8.992188 38.964844 8.601562 C 38.378906 8.207031 37.773438 7.847656 37.152344 7.515625 C 36.53125 7.179688 35.894531 6.878906 35.242188 6.609375 C 34.589844 6.339844 33.925781 6.101562 33.253906 5.898438 C 32.578125 5.691406 31.894531 5.523438 31.203125 5.382812 C 30.511719 5.246094 29.8125 5.144531 29.109375 5.074219 C 28.410156 5.003906 27.707031 4.96875 27 4.96875 Z M 39.726562 34.339844 C 39.726562 34.664062 39.695312 34.980469 39.632812 35.296875 C 39.570312 35.609375 39.476562 35.917969 39.355469 36.214844 C 39.230469 36.511719 39.078125 36.792969 38.902344 37.058594 C 38.722656 37.328125 38.519531 37.574219 38.292969 37.800781 C 38.066406 38.027344 37.816406 38.230469 37.550781 38.410156 C 37.285156 38.589844 37 38.738281 36.703125 38.863281 C 36.40625 38.984375 36.101562 39.078125 35.785156 39.140625 C 35.472656 39.203125 35.152344 39.234375 34.832031 39.238281 L 19.167969 39.238281 C 18.847656 39.234375 18.527344 39.203125 18.214844 39.140625 C 17.898438 39.078125 17.59375 38.984375 17.296875 38.863281 C 17 38.738281 16.714844 38.589844 16.449219 38.410156 C 16.183594 38.230469 15.933594 38.027344 15.707031 37.800781 C 15.480469 37.574219 15.277344 37.328125 15.097656 37.058594 C 14.921875 36.792969 14.769531 36.511719 14.644531 36.214844 C 14.523438 35.917969 14.429688 35.609375 14.367188 35.296875 C 14.304688 34.980469 14.273438 34.664062 14.273438 34.339844 L 14.273438 18.675781 C 14.273438 18.355469 14.304688 18.039062 14.367188 17.722656 C 14.429688 17.40625 14.523438 17.101562 14.644531 16.804688 C 14.769531 16.507812 14.921875 16.226562 15.097656 15.957031 C 15.277344 15.691406 15.480469 15.445312 15.707031 15.214844 C 15.933594 14.988281 16.183594 14.785156 16.449219 14.609375 C 16.714844 14.429688 17 14.277344 17.296875 14.15625 C 17.59375 14.03125 17.898438 13.9375 18.214844 13.875 C 18.527344 13.8125 18.847656 13.78125 19.167969 13.78125 L 34.832031 13.78125 C 35.152344 13.78125 35.472656 13.8125 35.785156 13.875 C 36.101562 13.9375 36.40625 14.03125 36.703125 14.15625 C 37 14.277344 37.285156 14.429688 37.550781 14.609375 C 37.816406 14.785156 38.066406 14.988281 38.292969 15.214844 C 38.519531 15.445312 38.722656 15.691406 38.902344 15.957031 C 39.078125 16.226562 39.230469 16.507812 39.355469 16.804688 C 39.476562 17.101562 39.570312 17.40625 39.632812 17.722656 C 39.695312 18.039062 39.726562 18.355469 39.726562 18.675781 Z M 39.726562 34.339844 " fill-opacity="1" fill-rule="nonzero"/></g><path fill="#ff9900" d="M 34.832031 15.738281 L 19.167969 15.738281 C 18.777344 15.738281 18.402344 15.816406 18.042969 15.964844 C 17.683594 16.113281 17.367188 16.324219 17.09375 16.601562 C 16.816406 16.875 16.605469 17.195312 16.457031 17.554688 C 16.304688 17.914062 16.230469 18.289062 16.230469 18.675781 L 16.230469 34.339844 C 16.230469 34.730469 16.304688 35.105469 16.457031 35.464844 C 16.605469 35.824219 16.816406 36.140625 17.09375 36.417969 C 17.367188 36.691406 17.683594 36.90625 18.042969 37.054688 C 18.402344 37.203125 18.777344 37.277344 19.167969 37.277344 L 34.832031 37.277344 C 35.222656 37.277344 35.597656 37.203125 35.957031 37.054688 C 36.316406 36.90625 36.632812 36.691406 36.90625 36.417969 C 37.183594 36.140625 37.394531 35.824219 37.542969 35.464844 C 37.695312 35.105469 37.769531 34.730469 37.769531 34.339844 L 37.769531 18.675781 C 37.769531 18.289062 37.695312 17.914062 37.542969 17.554688 C 37.394531 17.195312 37.183594 16.875 36.90625 16.601562 C 36.632812 16.324219 36.316406 16.113281 35.957031 15.964844 C 35.597656 15.816406 35.222656 15.738281 34.832031 15.738281 Z M 27 33.363281 C 26.550781 33.363281 26.105469 33.320312 25.664062 33.230469 C 25.222656 33.144531 24.792969 33.011719 24.378906 32.839844 C 23.960938 32.667969 23.566406 32.457031 23.191406 32.207031 C 22.820312 31.957031 22.472656 31.671875 22.152344 31.355469 C 21.835938 31.035156 21.550781 30.691406 21.300781 30.316406 C 21.050781 29.941406 20.839844 29.546875 20.667969 29.132812 C 20.496094 28.714844 20.367188 28.289062 20.277344 27.847656 C 20.191406 27.40625 20.148438 26.960938 20.148438 26.507812 C 20.148438 26.058594 20.191406 25.613281 20.277344 25.171875 C 20.367188 24.730469 20.496094 24.300781 20.667969 23.886719 C 20.839844 23.472656 21.050781 23.074219 21.300781 22.703125 C 21.550781 22.328125 21.835938 21.980469 22.152344 21.664062 C 22.472656 21.34375 22.820312 21.0625 23.191406 20.8125 C 23.566406 20.5625 23.960938 20.351562 24.378906 20.175781 C 24.792969 20.003906 25.222656 19.875 25.664062 19.789062 C 26.105469 19.699219 26.550781 19.65625 27 19.65625 C 27.449219 19.65625 27.894531 19.699219 28.335938 19.789062 C 28.777344 19.875 29.207031 20.003906 29.621094 20.175781 C 30.039062 20.351562 30.433594 20.5625 30.808594 20.8125 C 31.179688 21.0625 31.527344 21.34375 31.847656 21.664062 C 32.164062 21.980469 32.449219 22.328125 32.699219 22.703125 C 32.949219 23.074219 33.160156 23.472656 33.332031 23.886719 C 33.503906 24.300781 33.632812 24.730469 33.722656 25.171875 C 33.808594 25.613281 33.851562 26.058594 33.851562 26.507812 C 33.851562 26.957031 33.808594 27.40625 33.71875 27.84375 C 33.632812 28.285156 33.5 28.714844 33.328125 29.128906 C 33.15625 29.546875 32.945312 29.941406 32.695312 30.316406 C 32.445312 30.6875 32.160156 31.035156 31.84375 31.351562 C 31.527344 31.671875 31.179688 31.953125 30.804688 32.203125 C 30.429688 32.453125 30.035156 32.667969 29.621094 32.839844 C 29.207031 33.011719 28.777344 33.140625 28.335938 33.230469 C 27.894531 33.316406 27.449219 33.363281 27 33.363281 Z M 27 33.363281 " fill-opacity="1" fill-rule="nonzero"/><path fill="#ff9900" d="M 31.894531 26.507812 C 31.894531 26.832031 31.863281 27.148438 31.800781 27.464844 C 31.738281 27.78125 31.644531 28.085938 31.523438 28.382812 C 31.398438 28.679688 31.25 28.960938 31.070312 29.230469 C 30.890625 29.496094 30.6875 29.742188 30.460938 29.96875 C 30.234375 30.199219 29.988281 30.402344 29.71875 30.578125 C 29.453125 30.757812 29.171875 30.910156 28.875 31.03125 C 28.578125 31.15625 28.269531 31.246094 27.953125 31.308594 C 27.640625 31.371094 27.320312 31.402344 27 31.402344 C 26.679688 31.402344 26.359375 31.371094 26.046875 31.308594 C 25.730469 31.246094 25.421875 31.15625 25.125 31.03125 C 24.828125 30.910156 24.546875 30.757812 24.28125 30.578125 C 24.011719 30.402344 23.765625 30.199219 23.539062 29.96875 C 23.3125 29.742188 23.109375 29.496094 22.929688 29.230469 C 22.75 28.960938 22.601562 28.679688 22.476562 28.382812 C 22.355469 28.085938 22.261719 27.78125 22.199219 27.464844 C 22.136719 27.148438 22.105469 26.832031 22.105469 26.507812 C 22.105469 26.1875 22.136719 25.871094 22.199219 25.554688 C 22.261719 25.238281 22.355469 24.933594 22.476562 24.636719 C 22.601562 24.339844 22.75 24.058594 22.929688 23.789062 C 23.109375 23.523438 23.3125 23.273438 23.539062 23.046875 C 23.765625 22.820312 24.011719 22.617188 24.28125 22.4375 C 24.546875 22.261719 24.828125 22.109375 25.125 21.988281 C 25.421875 21.863281 25.730469 21.769531 26.046875 21.707031 C 26.359375 21.644531 26.679688 21.613281 27 21.613281 C 27.320312 21.613281 27.640625 21.644531 27.953125 21.707031 C 28.269531 21.769531 28.578125 21.863281 28.875 21.988281 C 29.171875 22.109375 29.453125 22.261719 29.71875 22.4375 C 29.988281 22.617188 30.234375 22.820312 30.460938 23.046875 C 30.6875 23.273438 30.890625 23.523438 31.070312 23.789062 C 31.25 24.058594 31.398438 24.339844 31.523438 24.636719 C 31.644531 24.933594 31.738281 25.238281 31.800781 25.554688 C 31.863281 25.871094 31.894531 26.1875 31.894531 26.507812 Z M 31.894531 26.507812 " fill-opacity="1" fill-rule="nonzero"/></svg>