<svg xmlns="http://www.w3.org/2000/svg" xmlns:xlink="http://www.w3.org/1999/xlink" width="72" zoomAndPan="magnify" viewBox="0 0 54 54" height="72" preserveAspectRatio="xMidYMid meet" version="1.0"><defs><filter x="0%" y="0%" width="100%" height="100%" id="7e51f487e2"><feColorMatrix values="0 0 0 0 1 0 0 0 0 1 0 0 0 0 1 0 0 0 1 0" color-interpolation-filters="sRGB"/></filter><clipPath id="7363228572"><path d="M 0.492188 0 L 53.507812 0 L 53.507812 53.019531 L 0.492188 53.019531 Z M 0.492188 0 " clip-rule="nonzero"/></clipPath><mask id="a958fbcf06"><g filter="url(#7e51f487e2)"><rect x="-5.4" width="64.8" fill="#000000" y="-5.4" height="64.8" fill-opacity="0.26"/></g></mask><clipPath id="3de011f956"><path d="M 0.492188 0 L 53.507812 0 L 53.507812 53.019531 L 0.492188 53.019531 Z M 0.492188 0 " clip-rule="nonzero"/></clipPath><clipPath id="5e1f8cce85"><path d="M 27 0 C 12.359375 0 0.492188 11.867188 0.492188 26.507812 C 0.492188 41.148438 12.359375 53.019531 27 53.019531 C 41.640625 53.019531 53.507812 41.148438 53.507812 26.507812 C 53.507812 11.867188 41.640625 0 27 0 Z M 27 0 " clip-rule="nonzero"/></clipPath><clipPath id="1514516b24"><path d="M 0.492188 0 L 53.507812 0 L 53.507812 53.019531 L 0.492188 53.019531 Z M 0.492188 0 " clip-rule="nonzero"/></clipPath><clipPath id="ea5803325f"><path d="M 27 0 C 12.359375 0 0.492188 11.867188 0.492188 26.507812 C 0.492188 41.148438 12.359375 53.019531 27 53.019531 C 41.640625 53.019531 53.507812 41.148438 53.507812 26.507812 C 53.507812 11.867188 41.640625 0 27 0 Z M 27 0 " clip-rule="nonzero"/></clipPath><clipPath id="e0a6796ef8"><rect x="0" width="54" y="0" height="54"/></clipPath><clipPath id="af6680e429"><rect x="0" width="54" y="0" height="54"/></clipPath><clipPath id="11d2d85df4"><path d="M 5.324219 4.832031 L 48.769531 4.832031 L 48.769531 48.277344 L 5.324219 48.277344 Z M 5.324219 4.832031 " clip-rule="nonzero"/></clipPath></defs><g clip-path="url(#7363228572)"><g mask="url(#a958fbcf06)"><g transform="matrix(1, 0, 0, 1, 0.000000000000000056, -0.000000000000014165)"><g clip-path="url(#af6680e429)"><g clip-path="url(#3de011f956)"><g clip-path="url(#5e1f8cce85)"><g transform="matrix(1, 0, 0, 1, 0.000000000000000056, -0.000000000000014165)"><g clip-path="url(#e0a6796ef8)"><g clip-path="url(#1514516b24)"><g clip-path="url(#ea5803325f)"><path fill="#00aad8" d="M 0.492188 0 L 53.507812 0 L 53.507812 53.019531 L 0.492188 53.019531 Z M 0.492188 0 " fill-opacity="1" fill-rule="nonzero"/></g></g></g></g></g></g></g></g></g></g><g clip-path="url(#11d2d85df4)"><path fill="#00aad8" d="M 27 48.160156 C 15.039062 48.160156 5.347656 38.46875 5.347656 26.507812 C 5.347656 14.550781 15.039062 4.859375 27 4.859375 C 38.960938 4.859375 48.652344 14.554688 48.652344 26.507812 C 48.652344 38.46875 38.960938 48.160156 27 48.160156 Z M 27 48.160156 " fill-opacity="1" fill-rule="nonzero"/><path fill="#00aad8" d="M 27 48.1875 C 24.074219 48.1875 21.234375 47.613281 18.558594 46.484375 C 15.980469 45.394531 13.660156 43.832031 11.671875 41.835938 C 9.679688 39.84375 8.117188 37.527344 7.027344 34.949219 C 5.894531 32.277344 5.324219 29.4375 5.324219 26.507812 C 5.324219 23.582031 5.894531 20.742188 7.027344 18.070312 C 8.117188 15.488281 9.679688 13.167969 11.671875 11.179688 C 13.664062 9.1875 15.980469 7.625 18.558594 6.535156 C 21.234375 5.402344 24.074219 4.832031 27 4.832031 C 29.925781 4.832031 32.765625 5.402344 35.441406 6.535156 C 38.019531 7.625 40.339844 9.1875 42.328125 11.179688 C 44.320312 13.175781 45.882812 15.488281 46.972656 18.070312 C 48.105469 20.742188 48.675781 23.582031 48.675781 26.507812 C 48.675781 29.4375 48.105469 32.277344 46.972656 34.949219 C 45.882812 37.527344 44.320312 39.847656 42.328125 41.835938 C 40.335938 43.832031 38.019531 45.394531 35.441406 46.484375 C 32.765625 47.613281 29.925781 48.1875 27 48.1875 Z M 27 4.882812 C 15.078125 4.882812 5.375 14.585938 5.375 26.507812 C 5.375 38.433594 15.078125 48.132812 27 48.132812 C 38.921875 48.132812 48.625 38.433594 48.625 26.507812 C 48.625 14.585938 38.921875 4.882812 27 4.882812 Z M 27 4.882812 " fill-opacity="1" fill-rule="nonzero"/></g><path fill="#ffffff" d="M 40.148438 32.847656 C 40.148438 32.628906 40.121094 32.402344 40.066406 32.1875 C 39.789062 31.21875 39.027344 30.671875 37.972656 30.609375 C 37.070312 30.558594 36.160156 30.484375 35.269531 30.34375 C 34.574219 30.234375 33.894531 30.003906 33.203125 29.839844 C 32.511719 29.6875 31.890625 29.820312 31.320312 30.261719 C 30.363281 31.003906 29.398438 31.726562 28.425781 32.449219 C 28.363281 32.492188 28.234375 32.492188 28.164062 32.464844 C 27.902344 32.332031 27.652344 32.175781 27.40625 32.039062 C 24.613281 30.445312 22.527344 28.175781 21.039062 25.335938 C 21.003906 25.273438 21.011719 25.144531 21.050781 25.09375 C 21.773438 24.125 22.496094 23.15625 23.238281 22.207031 C 23.6875 21.625 23.859375 20.996094 23.679688 20.285156 C 23.558594 19.824219 23.417969 19.363281 23.304688 18.898438 C 23.023438 17.753906 22.929688 16.589844 22.894531 15.410156 C 22.875 14.726562 22.585938 14.15625 22.023438 13.777344 C 21.8125 13.636719 21.570312 13.554688 21.328125 13.464844 C 21.328125 13.464844 21.328125 13.464844 21.320312 13.464844 C 21.300781 13.460938 21.28125 13.449219 21.265625 13.445312 C 21.171875 13.414062 21.003906 13.359375 20.890625 13.359375 C 19.234375 13.359375 17.582031 13.359375 15.929688 13.359375 C 15.84375 13.359375 15.667969 13.371094 15.507812 13.40625 C 15.019531 13.542969 14.578125 13.761719 14.292969 14.203125 C 14.15625 14.414062 14.066406 14.652344 13.972656 14.890625 C 13.972656 14.890625 13.839844 15.285156 13.839844 15.535156 C 13.839844 15.78125 13.871094 16.765625 13.925781 17.351562 C 13.960938 17.738281 13.996094 18.121094 14.042969 18.503906 C 14.3125 20.800781 14.925781 23 15.855469 25.113281 C 17.75 29.421875 20.652344 32.910156 24.550781 35.542969 C 28.582031 38.261719 33.050781 39.617188 37.910156 39.667969 C 39.222656 39.683594 40.148438 38.769531 40.148438 37.453125 C 40.160156 35.914062 40.160156 34.382812 40.148438 32.847656 Z M 40.148438 32.847656 " fill-opacity="1" fill-rule="nonzero"/></svg>